<svg xmlns="http://www.w3.org/2000/svg" direction="ltr" width="232" height="232" viewBox="-2917 -962.5 232 232" stroke-linecap="round" stroke-linejoin="round" data-color-mode="dark" class="tl-container tl-theme__force-sRGB tl-theme__dark" style="background-color: transparent;"><defs/><g transform="matrix(1, 0, 0, 1, -2901, -946.5)" opacity="1"><path stroke-width="3.5" d="M 7.6895 -0.7583 L 192.0303 1.08 Q 199.0303 1.08 199.0303 8.08 L 200.1425 192.6081 Q 200.1425 199.6081 193.1425 199.6081 L 6.1179 200.0265 Q -0.8821 200.0265 -0.8821 193.0265 L 0.6895 6.2417 Q 0.6895 -0.7583 7.6895 -0.7583 M 7.0406 -0.9839 L 191.9016 0.7572 Q 198.9016 0.7572 198.9016 7.7572 L 199.5184 193.5256 Q 199.5184 200.5256 192.5184 200.5256 L 7.8454 199.027 Q 0.8454 199.027 0.8454 192.027 L 0.0406 6.0161 Q 0.0406 -0.9839 7.0406 -0.9839" fill="none" stroke="#f2f2f2"/></g></svg>