<svg xmlns="http://www.w3.org/2000/svg" direction="ltr" width="232" height="232" viewBox="-1417 -734.5 232 232" stroke-linecap="round" stroke-linejoin="round" data-color-mode="dark" class="tl-container tl-theme__force-sRGB tl-theme__dark" style="background-color: transparent;"><defs/><g transform="matrix(1, 0, 0, 1, -1401, -718.5)" opacity="1"><path stroke-width="3.5" d="M 7.9714 0.6403 L 193.7812 0.783 Q 200.7812 0.783 200.7812 7.783 L 199.0573 192.6006 Q 199.0573 199.6006 192.0573 199.6006 L 7.4149 200.5536 Q 0.4149 200.5536 0.4149 193.5536 L 0.9714 7.6403 Q 0.9714 0.6403 7.9714 0.6403 M 7.3396 1.1531 L 193.6501 1.0256 Q 200.6501 1.0256 200.6501 8.0256 L 200.8394 193.5152 Q 200.8394 200.5152 193.8394 200.5152 L 6.8361 199.2289 Q -0.1639 199.2289 -0.1639 192.2289 L 0.3396 8.1531 Q 0.3396 1.1531 7.3396 1.1531" fill="none" stroke="#f2f2f2"/></g></svg>